<svg xmlns="http://www.w3.org/2000/svg" viewBox="0 0 16 16" fill="#fff"><path d="M8 1a7 7 0 1 0 0 14A7 7 0 0 0 8 1zm4.9 4.5h-2a10.6 10.6 0 0 0-1-2.6 5.5 5.5 0 0 1 3 2.6zM8 2.5c.6.8 1.1 1.8 1.4 3H6.6c.3-1.2.8-2.2 1.4-3zM2.6 9.5a5.5 5.5 0 0 1 0-3h2.3a12.2 12.2 0 0 0 0 3H2.6zm.5 1.5h2a10.6 10.6 0 0 0 1 2.6 5.5 5.5 0 0 1-3-2.6zm2-5.5h-2a5.5 5.5 0 0 1 3-2.6 10.6 10.6 0 0 0-1 2.6zM8 13.5c-.6-.8-1.1-1.8-1.4-3h2.8c-.3 1.2-.8 2.2-1.4 3zm1.7-4.5H6.3a10.8 10.8 0 0 1 0-3h3.4a10.8 10.8 0 0 1 0 3zm.2 4.1c.4-.8.8-1.6 1-2.6h2a5.5 5.5 0 0 1-3 2.6zm1.3-4.1a12.2 12.2 0 0 0 0-3h2.3a5.5 5.5 0 0 1 0 3h-2.3z"/></svg>
